<svg width="30" height="30" xmlns="http://www.w3.org/2000/svg" fill="grey">

 <g>
  <path d="m11.56541,9.73515c-0.13102,0 -0.26218,0.04991 -0.36203,0.15001l-1.02409,1.02409c-0.20021,0.20021 -0.20021,0.52436 0,0.72406l3.73433,3.73433l-3.73433,3.73433c-0.20021,0.20021 -0.20021,0.52436 0,0.72406l1.02409,1.02409c0.20021,0.20021 0.52436,0.20021 0.72406,0l3.73433,-3.73433l3.73433,3.73433c0.1997,0.20021 0.52436,0.20021 0.72406,0l1.02409,-1.02409c0.20021,-0.20021 0.20021,-0.52436 0,-0.72406l-3.73433,-3.73433l3.73433,-3.73433c0.20021,-0.1997 0.20021,-0.52436 0,-0.72406l-1.02409,-1.02409c-0.20021,-0.20021 -0.52436,-0.20021 -0.72406,0l-3.73433,3.73433l-3.73433,-3.73433c-0.1001,-0.1001 -0.23101,-0.15001 -0.36203,-0.15001z"/>
 </g>
</svg>